{"title":"Georgi Daneliya - Osenniy marafon [Autumn Marathon] (1979)","uid":6178484,"size":1504454229,"categoryP":"video","categoryS":"movies","magnet":"?xt=urn:btih:773cd8bd0f0ac4b8ba2b9a52a5a3425c6c4c495e&amp;dn=Georgi+Daneliya+-+Osenniy+marafon+%5BAutumn+Marathon%5D+%281979%29&amp;tr=udp%3A%2F%2Ftracker.openbittorrent.com%3A80&amp;tr=udp%3A%2F%2Fopen.demonii.com%3A1337&amp;tr=udp%3A%2F%2Ftracker.coppersurfer.tk%3A6969&amp;tr=udp%3A%2F%2Fexodus.desync.com%3A6969","seeders":2,"leechers":0,"uploader":"mfccorrea","files":3,"time":1297817440,"description":"The main character of this tragicomedy, Bouzykine, has a gift for attracting people. He is always ready to offer his helping hand and cannot refuse anyone. A kind and gentle person, Bouzykine never thinks about himself, thus getting in all kinds of complicated situations. Making a choice, showing a preference for something or somebody at the expense of others is always a problem for him. This goes for his private life, too. Unwilling to cause pain to his mistress, he unintentionally hurts his wife, unable to make a final decision till the last moment. However, he tries to change the habitual course of events, and almost succeeds.\n\n\n   General\n      Complete name : Osenniy marafon.avi\n      Format : AVI\n      Format/Info : Audio Video Interleave\n      File size : 1.36 GiB\n      Duration : 1h 28mn\n      Overall bit rate : 2 194 Kbps\n      Writing application : FairUse Wizard - http://fairusewizard.com     \n   Video #0\n      ID : 0\n      Format : MPEG-4 Visual\n      Format profile : AdvancedSimple@L5\n      Format settings, BVOP : Yes\n      Format settings, QPel : No\n      Format settings, GMC : No warppoints\n      Format settings, Matrix : Default (MPEG)\n      Muxing mode : Packed bitstream\n      Codec ID : XVID\n      Codec ID/Hint : XviD\n      Duration : 1h 28mn\n      Bit rate : 1 737 Kbps\n      Width : 688 pixels\n      Height : 512 pixels\n      Display aspect ratio : 4:3\n      Frame rate : 25.000 fps\n      Resolution : 24 bits\n      Colorimetry : 4:2:0\n      Scan type : Progressive\n      Bits/(Pixel*Frame) : 0.197\n      Stream size : 1.08 GiB (79%)\n      Writing library : XviD 1.2.0.dev47 (UTC 2006-11-01)\n   Audio #1\n      ID : 1\n      Format : AC-3\n      Format/Info : Audio Coding 3\n      Codec ID : 2000\n      Duration : 1h 28mn\n      Bit rate mode : Constant\n      Bit rate : 448 Kbps\n      Channel(s) : 6 channels\n      Channel positions : Front: L C R, Surround: L R, LFE\n      Sampling rate : 48.0 KHz\n      Stream size : 284 MiB (20%)\n      Alignment : Split accross interleaves\n      Interleave, duration : 40 ms (1.00 video frame)\n      Interleave, preload duration : 500 ms\n &lt;a href=&quot;\nhttp://www.imdb.com/title/tt0079679/&quot; rel=&quot;nofollow&quot; target=&quot;_NEW&quot;&gt;\nhttp://www.imdb.com/title/tt0079679/&lt;/a&gt;\n\nRussian audio; multilanguage subpack (Russian, English, French, German, Spanish, Portuguese, Italian, Dutch, Swedish, Hebrew, Japanese, Chinese)\n\nMy rip of the Ruscico DVD\n\nGeorgi Daneliya - Osenniy marafon [Autumn Marathon] (1979)","torrent":{"xt":"urn:btih:773cd8bd0f0ac4b8ba2b9a52a5a3425c6c4c495e","amp;dn":"Georgi+Daneliya+-+Osenniy+marafon+%5BAutumn+Marathon%5D+%281979%29","amp;tr":["udp%3A%2F%2Ftracker.openbittorrent.com%3A80","udp%3A%2F%2Fopen.demonii.com%3A1337","udp%3A%2F%2Ftracker.coppersurfer.tk%3A6969","udp%3A%2F%2Fexodus.desync.com%3A6969"],"infoHash":"773cd8bd0f0ac4b8ba2b9a52a5a3425c6c4c495e","infoHashBuffer":{"type":"Buffer","data":[119,60,216,189,15,10,196,184,186,43,154,82,165,163,66,92,108,76,73,94]},"announce":[],"urlList":[]}}